<svg xmlns="http://www.w3.org/2000/svg" viewBox="0 0 1920 1080" width="1920" height="1080">
  <defs>
    <!-- Dark stone floor for underground -->
    <pattern id="floor-dark" width="40" height="40" patternUnits="userSpaceOnUse">
      <rect width="40" height="40" fill="#2a1a10"/>
      <rect x="0" y="0" width="20" height="20" fill="#241610" opacity="0.5"/>
      <rect x="20" y="20" width="20" height="20" fill="#241610" opacity="0.5"/>
    </pattern>
    <!-- Rough stone wall -->
    <pattern id="wall-stone" width="30" height="20" patternUnits="userSpaceOnUse">
      <rect width="30" height="20" fill="#3a2a1a"/>
      <rect x="1" y="1" width="13" height="8" fill="#2e2014" rx="1"/>
      <rect x="16" y="1" width="13" height="8" fill="#2e2014" rx="1"/>
      <rect x="8" y="11" width="13" height="8" fill="#2e2014" rx="1"/>
    </pattern>
    <!-- Pipeway tunnel floor -->
    <pattern id="tunnel" width="20" height="20" patternUnits="userSpaceOnUse">
      <rect width="20" height="20" fill="#1e1208"/>
      <rect x="0" y="0" width="10" height="10" fill="#1a1006" opacity="0.6"/>
      <rect x="10" y="10" width="10" height="10" fill="#1a1006" opacity="0.6"/>
    </pattern>
    <!-- Catacomb ancient stone -->
    <pattern id="catacomb" width="30" height="20" patternUnits="userSpaceOnUse">
      <rect width="30" height="20" fill="#2a2018"/>
      <rect x="1" y="1" width="13" height="8" fill="#221810" rx="2"/>
      <rect x="16" y="1" width="13" height="8" fill="#221810" rx="2"/>
      <rect x="8" y="11" width="13" height="8" fill="#221810" rx="2"/>
    </pattern>
    <!-- Lab metal floor -->
    <pattern id="lab-floor" width="10" height="10" patternUnits="userSpaceOnUse">
      <rect width="10" height="10" fill="#2e2218"/>
      <line x1="0" y1="5" x2="10" y2="5" stroke="#362a1e" stroke-width="0.5"/>
      <line x1="5" y1="0" x2="5" y2="10" stroke="#362a1e" stroke-width="0.5"/>
    </pattern>
    <!-- Dim blue-green underground light -->
    <radialGradient id="dim-glow" cx="50%" cy="50%" r="50%">
      <stop offset="0%" stop-color="#4a6a6a" stop-opacity="0.12"/>
      <stop offset="100%" stop-color="#4a6a6a" stop-opacity="0"/>
    </radialGradient>
    <!-- Wuher's lab warm light -->
    <radialGradient id="lab-light" cx="50%" cy="50%" r="50%">
      <stop offset="0%" stop-color="#cc8844" stop-opacity="0.15"/>
      <stop offset="100%" stop-color="#cc8844" stop-opacity="0"/>
    </radialGradient>
    <!-- Caustic pit glow (sickly green) -->
    <radialGradient id="caustic-glow" cx="50%" cy="50%" r="50%">
      <stop offset="0%" stop-color="#44cc44" stop-opacity="0.2"/>
      <stop offset="80%" stop-color="#228822" stop-opacity="0.08"/>
      <stop offset="100%" stop-color="#228822" stop-opacity="0"/>
    </radialGradient>
    <!-- Shrine glow (faint blue) -->
    <radialGradient id="shrine-glow" cx="50%" cy="50%" r="50%">
      <stop offset="0%" stop-color="#6688cc" stop-opacity="0.12"/>
      <stop offset="100%" stop-color="#6688cc" stop-opacity="0"/>
    </radialGradient>
    <!-- Acid surface shimmer -->
    <pattern id="acid" width="30" height="30" patternUnits="userSpaceOnUse">
      <rect width="30" height="30" fill="#1a3a1a"/>
      <circle cx="10" cy="8" r="4" fill="#2a4a2a" opacity="0.5"/>
      <circle cx="25" cy="22" r="3" fill="#2a4a2a" opacity="0.4"/>
      <circle cx="5" cy="25" r="2" fill="#336633" opacity="0.3"/>
    </pattern>
  </defs>

  <!-- Background (cave darkness) -->
  <rect width="1920" height="1080" fill="#0e0a06"/>

  <!-- Title -->
  <text x="960" y="24" text-anchor="middle" font-family="Arial" font-size="18" fill="#4a6a6a" font-weight="bold">CHALMUN'S CANTINA — Basement Level</text>

  <!-- ═══════════════════════════════════════════════════════════ -->
  <!-- CAVE OUTLINE (irregular walls)                             -->
  <!-- ═══════════════════════════════════════════════════════════ -->

  <!-- Main excavated area fill -->
  <path d="M 200 100 L 700 80 Q 750 78 780 100 L 1100 90 Q 1150 88 1200 110
           L 1700 100 Q 1750 105 1780 140 L 1800 400 Q 1810 450 1790 500
           L 1800 800 Q 1805 860 1770 900 L 1700 950 Q 1650 970 1600 960
           L 1200 970 Q 1150 975 1100 960 L 700 970 Q 650 975 600 960
           L 300 950 Q 250 940 220 900 L 180 500 Q 170 450 180 400
           L 190 150 Q 195 120 200 100 Z"
        fill="url(#floor-dark)" stroke="#3a2a1a" stroke-width="6"/>

  <!-- ═══════════════════════════════════════════════════════════ -->
  <!-- STAIRCASE UP (connection to cantina storage room)          -->
  <!-- ═══════════════════════════════════════════════════════════ -->
  <rect x="420" y="100" width="160" height="180" rx="4" fill="url(#wall-stone)" stroke="#4a3a2a" stroke-width="4"/>
  <!-- Stair steps -->
  <line x1="440" y1="130" x2="560" y2="130" stroke="#5a4a3a" stroke-width="2"/>
  <line x1="440" y1="150" x2="560" y2="150" stroke="#5a4a3a" stroke-width="2"/>
  <line x1="440" y1="170" x2="560" y2="170" stroke="#5a4a3a" stroke-width="2"/>
  <line x1="440" y1="190" x2="560" y2="190" stroke="#5a4a3a" stroke-width="2"/>
  <line x1="440" y1="210" x2="560" y2="210" stroke="#5a4a3a" stroke-width="2"/>
  <line x1="440" y1="230" x2="560" y2="230" stroke="#5a4a3a" stroke-width="2"/>
  <line x1="440" y1="250" x2="560" y2="250" stroke="#5a4a3a" stroke-width="2"/>
  <!-- Arrow up -->
  <polygon points="500,115 490,135 510,135" fill="#cc9944" opacity="0.7"/>
  <text x="500" y="108" text-anchor="middle" font-family="Arial" font-size="11" fill="#cc9944">TO STORAGE</text>
  <text x="500" y="295" text-anchor="middle" font-family="Arial" font-size="14" fill="#888">STAIRCASE</text>

  <!-- Ambient light near staircase (daylight from above) -->
  <circle cx="500" cy="180" r="120" fill="url(#lab-light)"/>

  <!-- ═══════════════════════════════════════════════════════════ -->
  <!-- WUHER'S LAB (center-left, the main feature)               -->
  <!-- ═══════════════════════════════════════════════════════════ -->
  <!-- Lab room walls -->
  <rect x="280" y="340" width="440" height="340" rx="4" fill="url(#lab-floor)" stroke="#4a3a2a" stroke-width="4"/>

  <!-- Lab light -->
  <circle cx="500" cy="510" r="180" fill="url(#lab-light)"/>

  <!-- Workbench (west wall) -->
  <rect x="300" y="380" width="80" height="140" rx="3" fill="#4a3520" stroke="#3a2510" stroke-width="2"/>
  <text x="340" y="455" text-anchor="middle" font-family="Arial" font-size="10" fill="#886644">BENCH</text>
  <!-- Beakers/bottles on bench -->
  <rect x="310" y="390" width="12" height="20" rx="2" fill="#446644" opacity="0.6"/>
  <rect x="328" y="395" width="10" height="15" rx="2" fill="#664444" opacity="0.6"/>
  <rect x="344" y="388" width="14" height="22" rx="2" fill="#444466" opacity="0.6"/>
  <circle cx="368" cy="400" r="6" fill="#446644" opacity="0.4"/>

  <!-- Distillation apparatus (center) -->
  <rect x="440" y="400" width="100" height="80" rx="4" fill="#3a3020" stroke="#554430" stroke-width="2"/>
  <circle cx="470" cy="430" r="15" fill="none" stroke="#886644" stroke-width="2" opacity="0.6"/>
  <circle cx="510" cy="440" r="20" fill="none" stroke="#886644" stroke-width="2" opacity="0.5"/>
  <line x1="470" y1="430" x2="510" y2="440" stroke="#886644" stroke-width="1.5" opacity="0.5"/>
  <text x="490" y="500" text-anchor="middle" font-family="Arial" font-size="10" fill="#886644">DISTILLER</text>

  <!-- Buried pipes (going up to bar) -->
  <line x1="500" y1="340" x2="500" y2="380" stroke="#555" stroke-width="6" stroke-dasharray="8,4"/>
  <line x1="480" y1="340" x2="480" y2="370" stroke="#555" stroke-width="4" stroke-dasharray="6,4"/>
  <text x="490" y="335" text-anchor="middle" font-family="Arial" font-size="9" fill="#666">PIPES TO BAR ↑</text>

  <!-- Ingredient shelves (east wall) -->
  <rect x="620" y="380" width="80" height="120" rx="3" fill="#4a3520" stroke="#3a2510" stroke-width="2"/>
  <line x1="625" y1="410" x2="695" y2="410" stroke="#5a4530" stroke-width="1.5"/>
  <line x1="625" y1="440" x2="695" y2="440" stroke="#5a4530" stroke-width="1.5"/>
  <line x1="625" y1="470" x2="695" y2="470" stroke="#5a4530" stroke-width="1.5"/>
  <text x="660" y="520" text-anchor="middle" font-family="Arial" font-size="10" fill="#886644">SHELVES</text>

  <!-- Storage barrels (south wall) -->
  <circle cx="340" cy="620" r="20" fill="#4a3520" stroke="#3a2510" stroke-width="2"/>
  <circle cx="390" cy="630" r="18" fill="#4a3520" stroke="#3a2510" stroke-width="2"/>
  <circle cx="440" cy="625" r="20" fill="#4a3520" stroke="#3a2510" stroke-width="2"/>
  <text x="390" y="665" text-anchor="middle" font-family="Arial" font-size="10" fill="#886644">BARRELS</text>

  <!-- Drain grate (floor) -->
  <rect x="530" y="580" width="40" height="40" rx="2" fill="#2a2018" stroke="#444" stroke-width="2"/>
  <line x1="535" y1="585" x2="565" y2="615" stroke="#444" stroke-width="1"/>
  <line x1="565" y1="585" x2="535" y2="615" stroke="#444" stroke-width="1"/>
  <line x1="550" y1="582" x2="550" y2="618" stroke="#444" stroke-width="1"/>

  <!-- Lab label -->
  <text x="500" y="560" text-anchor="middle" font-family="Arial" font-size="16" fill="#cc9944" font-weight="bold">WUHER'S LAB</text>
  <text x="500" y="578" text-anchor="middle" font-family="Arial" font-size="11" fill="#886644">Drink Mixing &amp; Experiments</text>

  <!-- ═══════════════════════════════════════════════════════════ -->
  <!-- CAUSTIC PIT (center, south of lab)                         -->
  <!-- ═══════════════════════════════════════════════════════════ -->
  <!-- Pit outline -->
  <ellipse cx="500" cy="820" rx="160" ry="100" fill="url(#acid)" stroke="#336633" stroke-width="4"/>
  <!-- Inner acid pool -->
  <ellipse cx="500" cy="820" rx="120" ry="70" fill="#1a3a1a" stroke="#448844" stroke-width="2" opacity="0.8"/>
  <!-- Caustic glow -->
  <ellipse cx="500" cy="820" rx="200" ry="140" fill="url(#caustic-glow)"/>
  <!-- Bubbles -->
  <circle cx="460" cy="800" r="4" fill="#44aa44" opacity="0.3"/>
  <circle cx="520" cy="830" r="6" fill="#44aa44" opacity="0.25"/>
  <circle cx="480" cy="845" r="3" fill="#44aa44" opacity="0.35"/>
  <circle cx="540" cy="805" r="5" fill="#44aa44" opacity="0.2"/>
  <!-- Warning signs -->
  <polygon points="340,780 350,760 360,780" fill="#cc8800" stroke="#aa6600" stroke-width="1.5"/>
  <text x="350" y="776" text-anchor="middle" font-family="Arial" font-size="8" fill="#2a1a10" font-weight="bold">!</text>
  <polygon points="640,780 650,760 660,780" fill="#cc8800" stroke="#aa6600" stroke-width="1.5"/>
  <text x="650" y="776" text-anchor="middle" font-family="Arial" font-size="8" fill="#2a1a10" font-weight="bold">!</text>
  <!-- Bones at edge -->
  <line x1="370" y1="870" x2="395" y2="860" stroke="#888877" stroke-width="2" stroke-linecap="round"/>
  <line x1="380" y1="880" x2="400" y2="865" stroke="#888877" stroke-width="1.5" stroke-linecap="round"/>
  <line x1="610" y1="860" x2="635" y2="875" stroke="#888877" stroke-width="2" stroke-linecap="round"/>
  <!-- Pit label -->
  <text x="500" y="820" text-anchor="middle" font-family="Arial" font-size="14" fill="#66aa66" font-weight="bold">CAUSTIC PIT</text>
  <text x="500" y="838" text-anchor="middle" font-family="Arial" font-size="10" fill="#448844">Acid — Instant Death</text>

  <!-- Pit edge walkway (left) -->
  <text x="310" y="830" text-anchor="middle" font-family="Arial" font-size="10" fill="#666">ledge</text>
  <!-- Pit edge walkway (right) -->
  <text x="690" y="830" text-anchor="middle" font-family="Arial" font-size="10" fill="#666">ledge</text>

  <!-- ═══════════════════════════════════════════════════════════ -->
  <!-- PIPEWAYS (west side — Kabe & Muftak's home)                -->
  <!-- ═══════════════════════════════════════════════════════════ -->
  <!-- Tunnel from main area -->
  <rect x="200" y="400" width="80" height="500" rx="2" fill="url(#tunnel)" stroke="#3a2a1a" stroke-width="3"/>
  <!-- Pipeway room -->
  <path d="M 200 400 L 200 200 Q 200 160 240 160 L 400 160 Q 420 160 420 180
           L 420 320 Q 420 340 400 340 L 280 340 L 280 400 Z"
        fill="url(#tunnel)" stroke="#3a2a1a" stroke-width="3"/>

  <!-- Dim glow in pipeways -->
  <circle cx="310" cy="250" r="100" fill="url(#dim-glow)"/>

  <!-- Pipes running along walls -->
  <line x1="215" y1="180" x2="215" y2="880" stroke="#555" stroke-width="5" opacity="0.6"/>
  <line x1="230" y1="200" x2="230" y2="860" stroke="#444" stroke-width="3" opacity="0.5"/>
  <line x1="260" y1="170" x2="400" y2="170" stroke="#555" stroke-width="5" opacity="0.6"/>

  <!-- Bedrolls (Kabe & Muftak) -->
  <rect x="290" y="210" width="60" height="30" rx="8" fill="#554433" stroke="#443322" stroke-width="1.5"/>
  <rect x="360" y="220" width="50" height="25" rx="8" fill="#445544" stroke="#334433" stroke-width="1.5"/>
  <text x="330" y="200" text-anchor="middle" font-family="Arial" font-size="9" fill="#666">bedrolls</text>

  <!-- Stolen goods pile -->
  <rect x="300" y="270" width="40" height="30" rx="2" fill="#4a3a2a" stroke="#3a2a1a" stroke-width="1.5"/>
  <rect x="310" y="260" width="25" height="20" rx="2" fill="#3a3020" stroke="#2a2010" stroke-width="1"/>
  <text x="320" y="310" text-anchor="middle" font-family="Arial" font-size="9" fill="#666">loot stash</text>

  <!-- Pipeways label -->
  <text x="310" y="340" text-anchor="middle" font-family="Arial" font-size="14" fill="#4a6a6a" font-weight="bold">PIPEWAYS</text>
  <text x="310" y="356" text-anchor="middle" font-family="Arial" font-size="10" fill="#3a5a5a">Kabe &amp; Muftak's Den</text>

  <!-- Tunnel south continuation -->
  <text x="240" y="700" text-anchor="middle" font-family="Arial" font-size="10" fill="#555" transform="rotate(-90 240 700)">tunnel</text>

  <!-- ═══════════════════════════════════════════════════════════ -->
  <!-- ANCIENT CATACOMBS (east side — B'omarr monk chambers)      -->
  <!-- ═══════════════════════════════════════════════════════════ -->
  <!-- Catacomb main chamber -->
  <path d="M 900 120 L 1300 100 Q 1350 95 1380 130 L 1400 300
           Q 1410 350 1380 380 L 1300 420 Q 1260 440 1220 420
           L 900 400 Q 860 380 850 340 L 840 200 Q 835 150 870 130 Z"
        fill="url(#catacomb)" stroke="#3a2a1a" stroke-width="4"/>

  <!-- Dim glow -->
  <circle cx="1100" cy="260" r="160" fill="url(#dim-glow)"/>

  <!-- Carved symbols on walls -->
  <circle cx="910" cy="200" r="12" fill="none" stroke="#4a5a5a" stroke-width="1.5" opacity="0.4"/>
  <circle cx="910" cy="200" r="6" fill="none" stroke="#4a5a5a" stroke-width="1" opacity="0.3"/>
  <circle cx="1340" cy="180" r="14" fill="none" stroke="#4a5a5a" stroke-width="1.5" opacity="0.4"/>
  <line x1="1333" y1="180" x2="1347" y2="180" stroke="#4a5a5a" stroke-width="1" opacity="0.3"/>
  <line x1="1340" y1="173" x2="1340" y2="187" stroke="#4a5a5a" stroke-width="1" opacity="0.3"/>

  <!-- Bone piles -->
  <line x1="950" y1="350" x2="975" y2="340" stroke="#888877" stroke-width="2" stroke-linecap="round"/>
  <line x1="955" y1="360" x2="980" y2="345" stroke="#888877" stroke-width="1.5" stroke-linecap="round"/>
  <line x1="960" y1="370" x2="970" y2="355" stroke="#888877" stroke-width="1" stroke-linecap="round"/>
  <text x="965" y="388" text-anchor="middle" font-family="Arial" font-size="9" fill="#555">bones</text>

  <!-- Stone pillars -->
  <rect x="1000" y="180" width="30" height="30" rx="3" fill="#3a3020" stroke="#4a4030" stroke-width="2"/>
  <rect x="1150" y="200" width="30" height="30" rx="3" fill="#3a3020" stroke="#4a4030" stroke-width="2"/>
  <rect x="1050" y="320" width="30" height="30" rx="3" fill="#3a3020" stroke="#4a4030" stroke-width="2"/>

  <!-- Ancient altar/table -->
  <rect x="1080" y="230" width="80" height="50" rx="4" fill="#3a2a1a" stroke="#4a3a2a" stroke-width="2"/>
  <text x="1120" y="260" text-anchor="middle" font-family="Arial" font-size="10" fill="#4a5a5a">altar</text>

  <!-- Catacomb label -->
  <text x="1100" y="160" text-anchor="middle" font-family="Arial" font-size="16" fill="#4a6a6a" font-weight="bold">ANCIENT CATACOMBS</text>
  <text x="1100" y="178" text-anchor="middle" font-family="Arial" font-size="11" fill="#3a5a5a">B'omarr Monk Chambers</text>

  <!-- ═══════════════════════════════════════════════════════════ -->
  <!-- DEEP CATACOMBS (far east — monk shrine)                    -->
  <!-- ═══════════════════════════════════════════════════════════ -->
  <!-- Connecting passage -->
  <rect x="1380" y="200" width="100" height="120" rx="2" fill="url(#catacomb)" stroke="#3a2a1a" stroke-width="3"/>

  <!-- Shrine chamber -->
  <path d="M 1480 140 L 1720 130 Q 1760 128 1780 160 L 1790 380
           Q 1795 420 1760 440 L 1500 450 Q 1470 445 1460 420
           L 1450 200 Q 1445 160 1480 140 Z"
        fill="url(#catacomb)" stroke="#3a2a1a" stroke-width="4"/>

  <!-- Shrine glow -->
  <circle cx="1620" cy="290" r="120" fill="url(#shrine-glow)"/>

  <!-- B'omarr monk brain jar (central artifact) -->
  <circle cx="1620" cy="290" r="30" fill="#2a3040" stroke="#4466aa" stroke-width="2" opacity="0.7"/>
  <circle cx="1620" cy="290" r="18" fill="#1a2030" stroke="#5577bb" stroke-width="1.5" opacity="0.6"/>
  <circle cx="1620" cy="290" r="6" fill="#6688cc" opacity="0.3"/>

  <!-- Ceremonial circle -->
  <circle cx="1620" cy="290" r="60" fill="none" stroke="#4466aa" stroke-width="1" opacity="0.3" stroke-dasharray="6,4"/>

  <!-- Stone pedestals -->
  <rect x="1530" y="200" width="25" height="25" rx="3" fill="#3a3020" stroke="#4a4030" stroke-width="2"/>
  <rect x="1690" y="210" width="25" height="25" rx="3" fill="#3a3020" stroke="#4a4030" stroke-width="2"/>
  <rect x="1560" y="370" width="25" height="25" rx="3" fill="#3a3020" stroke="#4a4030" stroke-width="2"/>
  <rect x="1670" y="360" width="25" height="25" rx="3" fill="#3a3020" stroke="#4a4030" stroke-width="2"/>

  <!-- Wall carvings -->
  <line x1="1500" y1="170" x2="1520" y2="170" stroke="#4a5a5a" stroke-width="1" opacity="0.3"/>
  <line x1="1510" y1="165" x2="1510" y2="175" stroke="#4a5a5a" stroke-width="1" opacity="0.3"/>
  <line x1="1740" y1="175" x2="1760" y2="175" stroke="#4a5a5a" stroke-width="1" opacity="0.3"/>

  <!-- Shrine label -->
  <text x="1620" y="250" text-anchor="middle" font-family="Arial" font-size="14" fill="#6688cc" font-weight="bold">MONK SHRINE</text>
  <text x="1620" y="340" text-anchor="middle" font-family="Arial" font-size="10" fill="#5577aa">Brain Walker Jar</text>

  <!-- ═══════════════════════════════════════════════════════════ -->
  <!-- CONNECTING PASSAGES                                        -->
  <!-- ═══════════════════════════════════════════════════════════ -->

  <!-- Lab to Pipeways passage (west) -->
  <rect x="260" y="440" width="20" height="80" fill="url(#floor-dark)" stroke="none"/>

  <!-- Lab to Catacombs passage (east) -->
  <rect x="720" y="400" width="140" height="60" rx="2" fill="url(#floor-dark)" stroke="#3a2a1a" stroke-width="2"/>
  <text x="790" y="435" text-anchor="middle" font-family="Arial" font-size="10" fill="#555">passage</text>

  <!-- Staircase to Lab passage -->
  <rect x="460" y="280" width="80" height="60" fill="url(#floor-dark)" stroke="none"/>

  <!-- Caustic pit approach from lab -->
  <rect x="440" y="680" width="120" height="40" fill="url(#floor-dark)" stroke="none"/>

  <!-- Pipeways to caustic pit south passage -->
  <rect x="240" y="880" width="80" height="60" rx="2" fill="url(#tunnel)" stroke="#3a2a1a" stroke-width="2"/>
  <text x="280" y="915" text-anchor="middle" font-family="Arial" font-size="10" fill="#555">passage</text>

  <!-- ═══════════════════════════════════════════════════════════ -->
  <!-- SOUTH TUNNELS (collapsed, impassable)                      -->
  <!-- ═══════════════════════════════════════════════════════════ -->
  <!-- Collapsed tunnel south -->
  <path d="M 700 920 L 900 910 Q 950 915 980 940 L 1000 970 Q 1010 990 980 1000
           L 720 1000 Q 690 995 680 970 Z"
        fill="#3a2a1a" stroke="#4a3a2a" stroke-width="3"/>
  <!-- Rubble -->
  <circle cx="780" cy="950" r="12" fill="#4a3a2a" stroke="#5a4a3a" stroke-width="1.5"/>
  <circle cx="820" cy="960" r="15" fill="#3a2a1a" stroke="#4a3a2a" stroke-width="1.5"/>
  <circle cx="860" cy="945" r="10" fill="#4a3a2a" stroke="#5a4a3a" stroke-width="1.5"/>
  <circle cx="900" cy="965" r="14" fill="#3a2a1a" stroke="#4a3a2a" stroke-width="1.5"/>
  <text x="840" y="930" text-anchor="middle" font-family="Arial" font-size="12" fill="#555">COLLAPSED</text>

  <!-- ═══════════════════════════════════════════════════════════ -->
  <!-- EAST TUNNELS / DEEP PASSAGE                                -->
  <!-- ═══════════════════════════════════════════════════════════ -->
  <!-- Passage from catacombs south -->
  <path d="M 1200 420 L 1250 500 Q 1260 540 1240 580
           L 1200 700 Q 1190 740 1220 780 L 1300 850
           Q 1340 880 1380 860 L 1500 780 Q 1540 760 1560 790
           L 1600 900 Q 1610 940 1580 960 L 1400 970"
        fill="none" stroke="#3a2a1a" stroke-width="40" stroke-linecap="round" stroke-linejoin="round" opacity="0.6"/>
  <path d="M 1200 420 L 1250 500 Q 1260 540 1240 580
           L 1200 700 Q 1190 740 1220 780 L 1300 850
           Q 1340 880 1380 860 L 1500 780 Q 1540 760 1560 790
           L 1600 900 Q 1610 940 1580 960 L 1400 970"
        fill="none" stroke="url(#tunnel)" stroke-width="36" stroke-linecap="round" stroke-linejoin="round"/>
  <text x="1400" y="700" text-anchor="middle" font-family="Arial" font-size="11" fill="#444" transform="rotate(30 1400 700)">deep tunnels</text>
  <text x="1500" y="950" text-anchor="middle" font-family="Arial" font-size="10" fill="#555">→ endless dark</text>

  <!-- ═══════════════════════════════════════════════════════════ -->
  <!-- AMBIENT DETAILS                                            -->
  <!-- ═══════════════════════════════════════════════════════════ -->

  <!-- Dripping water spots -->
  <circle cx="750" cy="500" r="2" fill="#4a6a8a" opacity="0.3"/>
  <circle cx="752" cy="504" r="1" fill="#4a6a8a" opacity="0.2"/>
  <circle cx="1050" cy="400" r="2" fill="#4a6a8a" opacity="0.3"/>

  <!-- Cobwebs (top-left corner) -->
  <path d="M 210 130 Q 260 130 260 170" fill="none" stroke="#666" stroke-width="0.5" opacity="0.3"/>
  <path d="M 210 130 Q 240 150 260 170" fill="none" stroke="#666" stroke-width="0.5" opacity="0.2"/>
  <path d="M 210 130 Q 220 160 260 170" fill="none" stroke="#666" stroke-width="0.5" opacity="0.2"/>

  <!-- Vermin (small shapes) -->
  <ellipse cx="700" cy="650" rx="4" ry="2" fill="#4a3a2a" opacity="0.5"/>
  <ellipse cx="1300" cy="380" rx="3" ry="1.5" fill="#4a3a2a" opacity="0.4"/>

  <!-- Scale reference -->
  <line x1="100" y1="1050" x2="200" y2="1050" stroke="#444" stroke-width="2"/>
  <text x="150" y="1068" text-anchor="middle" font-family="Arial" font-size="10" fill="#444">~5 meters</text>
</svg>